REM DIRINDEX 1\5,1\2\6,1\2\7,1\3\8,1\3\9,1\4\10,1\4\11,1\4\12
REM DIRNAME cjc026,folder01,folder02,folder03,folder04,folder05,folder06,folder07,folder08,folder09,folder10,folder11
TITLE ""
FILE "EJE_DB3000_5th_2A_52.mp3" MP3
  TRACK 01 AUDIO
    TITLE "0:"
    INDEX 01 00:00:00
  TRACK 02 AUDIO
    TITLE "10:cjc026_08256"
    INDEX 01 00:00:08
  TRACK 03 AUDIO
    TITLE "0:"
    INDEX 01 00:01:57
  TRACK 04 AUDIO
    TITLE "11:cjc026_08257"
    INDEX 01 00:02:20
  TRACK 05 AUDIO
    TITLE "0:"
    INDEX 01 00:03:36
  TRACK 06 AUDIO
    TITLE "12:cjc026_08258"
    INDEX 01 00:03:72
  TRACK 07 AUDIO
    TITLE "0:"
    INDEX 01 00:05:48
  TRACK 08 AUDIO
    TITLE "10:cjc026_08259"
    INDEX 01 00:06:09
  TRACK 09 AUDIO
    TITLE "0:"
    INDEX 01 00:07:39
  TRACK 10 AUDIO
    TITLE "11:cjc026_08260"
    INDEX 01 00:07:74
  TRACK 11 AUDIO
    TITLE "0:"
    INDEX 01 00:09:27
  TRACK 12 AUDIO
    TITLE "12:cjc026_08261"
    INDEX 01 00:09:62
  TRACK 13 AUDIO
    TITLE "0:"
    INDEX 01 00:11:17
  TRACK 14 AUDIO
    TITLE "10:cjc026_08262"
    INDEX 01 00:11:52
  TRACK 15 AUDIO
    TITLE "0:"
    INDEX 01 00:13:13
  TRACK 16 AUDIO
    TITLE "11:cjc026_08263"
    INDEX 01 00:13:48
  TRACK 17 AUDIO
    TITLE "0:"
    INDEX 01 00:14:70
  TRACK 18 AUDIO
    TITLE "12:cjc026_08264"
    INDEX 01 00:15:30
  TRACK 19 AUDIO
    TITLE "0:"
    INDEX 01 00:16:66
  TRACK 20 AUDIO
    TITLE "10:cjc026_08265"
    INDEX 01 00:17:26
  TRACK 21 AUDIO
    TITLE "0:"
    INDEX 01 00:18:59
  TRACK 22 AUDIO
    TITLE "11:cjc026_08266"
    INDEX 01 00:19:19
  TRACK 23 AUDIO
    TITLE "0:"
    INDEX 01 00:20:36
  TRACK 24 AUDIO
    TITLE "12:cjc026_08267"
    INDEX 01 00:20:71
  TRACK 25 AUDIO
    TITLE "0:"
    INDEX 01 00:22:29
  TRACK 26 AUDIO
    TITLE "10:cjc026_08268"
    INDEX 01 00:22:64
  TRACK 27 AUDIO
    TITLE "0:"
    INDEX 01 00:24:17
  TRACK 28 AUDIO
    TITLE "11:cjc026_08269"
    INDEX 01 00:24:52
  TRACK 29 AUDIO
    TITLE "0:"
    INDEX 01 00:26:12
  TRACK 30 AUDIO
    TITLE "12:cjc026_08270"
    INDEX 01 00:26:48
  TRACK 31 AUDIO
    TITLE "0:"
    INDEX 01 00:28:03
  TRACK 32 AUDIO
    TITLE "10:cjc026_08271"
    INDEX 01 00:28:38
  TRACK 33 AUDIO
    TITLE "0:"
    INDEX 01 00:29:74
  TRACK 34 AUDIO
    TITLE "11:cjc026_08272"
    INDEX 01 00:30:36
  TRACK 35 AUDIO
    TITLE "0:"
    INDEX 01 00:31:69
  TRACK 36 AUDIO
    TITLE "12:cjc026_08273"
    INDEX 01 00:32:30
  TRACK 37 AUDIO
    TITLE "0:"
    INDEX 01 00:33:65
  TRACK 38 AUDIO
    TITLE "10:cjc026_08274"
    INDEX 01 00:34:25
  TRACK 39 AUDIO
    TITLE "0:"
    INDEX 01 00:35:61
  TRACK 40 AUDIO
    TITLE "11:cjc026_08275"
    INDEX 01 00:36:21
  TRACK 41 AUDIO
    TITLE "0:"
    INDEX 01 00:37:41
  TRACK 42 AUDIO
    TITLE "12:cjc026_08276"
    INDEX 01 00:38:01
  TRACK 43 AUDIO
    TITLE "0:"
    INDEX 01 00:39:36
  TRACK 44 AUDIO
    TITLE "10:cjc026_08277"
    INDEX 01 00:39:72
  TRACK 45 AUDIO
    TITLE "0:"
    INDEX 01 00:41:13
  TRACK 46 AUDIO
    TITLE "11:cjc026_08278"
    INDEX 01 00:41:51
  TRACK 47 AUDIO
    TITLE "0:"
    INDEX 01 00:43:23
  TRACK 48 AUDIO
    TITLE "12:cjc026_08279"
    INDEX 01 00:43:58
  TRACK 49 AUDIO
    TITLE "0:"
    INDEX 01 00:45:02
  TRACK 50 AUDIO
    TITLE "10:cjc026_08280"
    INDEX 01 00:45:37
  TRACK 51 AUDIO
    TITLE "0:"
    INDEX 01 00:46:46
  TRACK 52 AUDIO
    TITLE "11:cjc026_08281"
    INDEX 01 00:47:12
  TRACK 53 AUDIO
    TITLE "0:"
    INDEX 01 00:48:45
  TRACK 54 AUDIO
    TITLE "12:cjc026_08282"
    INDEX 01 00:49:05
  TRACK 55 AUDIO
    TITLE "0:"
    INDEX 01 00:50:16
  TRACK 56 AUDIO
    TITLE "10:cjc026_08283"
    INDEX 01 00:50:51
  TRACK 57 AUDIO
    TITLE "0:"
    INDEX 01 00:52:09
  TRACK 58 AUDIO
    TITLE "11:cjc026_08284"
    INDEX 01 00:52:47
  TRACK 59 AUDIO
    TITLE "0:"
    INDEX 01 00:53:64
  TRACK 60 AUDIO
    TITLE "12:cjc026_08285"
    INDEX 01 00:54:24
  TRACK 61 AUDIO
    TITLE "0:"
    INDEX 01 00:55:57
  TRACK 62 AUDIO
    TITLE "10:cjc026_08286"
    INDEX 01 00:56:17
  TRACK 63 AUDIO
    TITLE "0:"
    INDEX 01 00:57:36
  TRACK 64 AUDIO
    TITLE "11:cjc026_08287"
    INDEX 01 00:57:74
  TRACK 65 AUDIO
    TITLE "0:"
    INDEX 01 00:59:43
  TRACK 66 AUDIO
    TITLE "12:cjc026_08288"
    INDEX 01 01:00:06
  TRACK 67 AUDIO
    TITLE "0:"
    INDEX 01 01:01:23
  TRACK 68 AUDIO
    TITLE "10:cjc026_08289"
    INDEX 01 01:01:60
  TRACK 69 AUDIO
    TITLE "0:"
    INDEX 01 01:03:13
  TRACK 70 AUDIO
    TITLE "11:cjc026_08290"
    INDEX 01 01:03:48
  TRACK 71 AUDIO
    TITLE "0:"
    INDEX 01 01:05:14
  TRACK 72 AUDIO
    TITLE "12:cjc026_08291"
    INDEX 01 01:05:49
  TRACK 73 AUDIO
    TITLE "0:"
    INDEX 01 01:06:74
